# xmcd CD database file
#
# Track frame offsets:
#	150
#	13070
#	28520
#	48902
#	69580
#	82717
#	107253
#	124183
#
# Disc length: 1857 seconds
#
# Revision: 0
# Processed by: cddbd v1.5.1PL2 Copyright (c) Steve Scherf et al.
# Submitted via: CDex 1.50
#
DISCID=55073f08
DTITLE=Cliff Guy - Escape
DYEAR=2004
DGENRE=Country
TTITLE0=Escape With ET
TTITLE1=Move On Over
TTITLE2=Australian Adventure
TTITLE3=Campfire Night
TTITLE4=West
TTITLE5=Dreamtime
TTITLE6=Fishing for The Future
TTITLE7=Road To Adventure
EXTD=YEAR: 2004
EXTT0=
EXTT1=
EXTT2=
EXTT3=
EXTT4=
EXTT5=
EXTT6=
EXTT7=
PLAYORDER=
